<?xml version="1.0" encoding="UTF-8" standalone="no"?>
<!-- Generator: Adobe Illustrator 19.0.0, SVG Export Plug-In . SVG Version: 6.00 Build 0)  -->

<svg
   xmlns:dc="http://purl.org/dc/elements/1.1/"
   xmlns:cc="http://creativecommons.org/ns#"
   xmlns:rdf="http://www.w3.org/1999/02/22-rdf-syntax-ns#"
   xmlns:svg="http://www.w3.org/2000/svg"
   xmlns="http://www.w3.org/2000/svg"
   xmlns:sodipodi="http://sodipodi.sourceforge.net/DTD/sodipodi-0.dtd"
   xmlns:inkscape="http://www.inkscape.org/namespaces/inkscape"
   version="1.1"
   id="Layer_1"
   x="0px"
   y="0px"
   viewBox="0 0 503.947 503.947"
   style="enable-background:new 0 0 503.947 503.947;"
   xml:space="preserve"
   sodipodi:docname="rocket.svg"
   inkscape:version="0.92.4 5da689c313, 2019-01-14"><metadata
   id="metadata55"><rdf:RDF><cc:Work
       rdf:about=""><dc:format>image/svg+xml</dc:format><dc:type
         rdf:resource="http://purl.org/dc/dcmitype/StillImage" /></cc:Work></rdf:RDF></metadata><defs
   id="defs53" /><sodipodi:namedview
   pagecolor="#ffffff"
   bordercolor="#666666"
   borderopacity="1"
   objecttolerance="10"
   gridtolerance="10"
   guidetolerance="10"
   inkscape:pageopacity="0"
   inkscape:pageshadow="2"
   inkscape:window-width="1366"
   inkscape:window-height="706"
   id="namedview51"
   showgrid="false"
   inkscape:zoom="0.46830322"
   inkscape:cx="251.9735"
   inkscape:cy="251.9735"
   inkscape:window-x="0"
   inkscape:window-y="0"
   inkscape:window-maximized="1"
   inkscape:current-layer="Layer_1" />
<path
   style="fill:#efc75e"
   d="m 111.64667,257.65071 c 0,31.19048 -25.621308,56.81179 -56.812496,56.81249 -31.19048,0 -97.471841,-25.6213 -97.471841,-56.81178 0,-31.19048 66.280654,-56.8125 97.471841,-56.81179 31.191188,-7.1e-4 56.533896,25.342 56.812496,56.81108 z"
   id="path2"
   inkscape:connector-curvature="0" />
<path
   style="fill:#deb957"
   d="m 72.658215,203.62351 -1.670893,1.67089 c -28.963094,28.9631 -28.963094,76.30672 0,105.26982 l 1.113693,1.11369 c 22.83672,-7.24077 39.267055,-28.68449 39.267055,-54.3058 0.2786,-24.78551 -16.151734,-46.22923 -38.709855,-53.7486 z"
   id="path4"
   inkscape:connector-curvature="0" />
<path
   style="fill:#f26c4f"
   d="m 280.96975,252.08083 c 0,95.24445 -58.20479,172.38556 -148.43585,172.38556 H 89.646455 c -90.23106751,0 49.293125,-77.14181 49.293125,-172.38627 0,-95.24445 -140.0813927,-172.386267 -49.293125,-172.386267 H 132.5339 c 90.23106,0.0014 148.43514,77.143227 148.43585,172.386977 z"
   id="path6"
   inkscape:connector-curvature="0" />
<path
   style="fill:#f4f0d3"
   d="m 596.222,252.08083 c 0,28.96309 -98.30694,114.46008 -276.26309,114.73868 -115.57377,-0.2786 -172.38627,-16.43104 -172.38627,-16.43104 -64.889065,-12.53205 -65.723451,-49.01452 -65.724158,-98.02904 -7.07e-4,-49.01452 0.5572,-85.77488 65.724158,-98.02904 0,0 57.3697,-16.15244 172.94347,-16.43104 177.67614,0 275.98378,84.94049 275.70589,114.18148 z"
   id="path8"
   inkscape:connector-curvature="0" />
<path
   style="fill:#e8e4c8"
   d="m 175.42134,353.17306 c -67.39506,-13.36786 -68.50875,-51.24262 -68.50875,-101.92803 0,-51.24262 0.55649,-89.11738 68.50875,-101.92803 l 10.86116,-2.50599 c -25.62131,3.89899 -38.70986,7.51938 -38.70986,7.51938 -65.166958,12.25416 -65.723451,49.01452 -65.724158,98.02904 -7.07e-4,49.01452 1.113693,85.21839 65.724158,98.02904 0,0 27.0136,7.51867 81.598,12.53205 -35.92597,-4.73408 -53.7493,-9.74746 -53.7493,-9.74746 z"
   id="path10"
   inkscape:connector-curvature="0" />
<path
   style="fill:#8ba0ab"
   d="m 409.63207,252.08083 c 0,27.29149 -22.00092,49.29241 -49.29312,49.29312 -27.29149,0 -49.29241,-22.00092 -49.29312,-49.29312 0,-27.29149 22.00092,-49.29241 49.29312,-49.29312 27.2922,-7.1e-4 49.57243,22.27952 49.29312,49.29312 z"
   id="path12"
   inkscape:connector-curvature="0" />
<path
   style="fill:#f26c4f"
   d="m 242.81639,257.92931 c 0,13.92435 -38.15265,25.34271 -106.10561,25.34271 -67.952966,0 -97.750446,-11.41836 -97.471846,-25.62131 0,-13.92435 29.520294,-25.62131 97.471846,-25.62131 68.23014,0.2786 106.10561,11.41836 106.10561,25.89991 z"
   id="path14"
   inkscape:connector-curvature="0" />
<path
   style="fill:#324d5b"
   d="m 387.07466,225.62443 c 6.96217,6.96217 10.86116,16.43033 10.86116,26.45711 0,10.02536 -3.89899,19.49493 -10.86116,26.4571 -6.96217,6.96218 -16.43033,10.86116 -26.45711,10.86116 -10.02536,0 -19.49493,-3.89898 -26.45711,-10.86116 -6.96217,-6.96217 -10.86116,-16.43033 -10.86116,-26.4571 0,-10.02536 3.89899,-19.49494 10.86116,-26.45711 6.96218,-6.96217 16.43034,-10.86116 26.45711,-10.86116 10.02607,-7.1e-4 19.49494,3.89899 26.45711,10.86116 m 8.35447,-8.35447 c -8.91167,-8.91166 -21.16512,-14.48154 -34.81087,-14.20294 -27.29149,0 -49.29241,22.00092 -49.29312,49.29312 0,13.36714 5.29128,25.8992 14.20295,34.81086 8.91166,8.91167 21.16512,14.48155 34.81086,14.20295 27.2915,0 49.29242,-22.00092 49.29312,-49.29312 0.2786,-13.64575 -5.29128,-25.8992 -14.20294,-34.81087 z"
   id="path16"
   inkscape:connector-curvature="0" />
<path
   style="fill:#f26c4f"
   d="m 504.04073,173.82532 c -16.15244,21.16583 -25.89991,50.96402 -25.89991,83.8261 0.2786,28.68449 7.51937,54.863 20.05143,75.19302 64.05327,-27.29361 97.75044,-63.77537 98.02975,-80.76361 0.27789,-16.43104 -31.74839,-51.24191 -92.18127,-78.25551 z"
   id="path18"
   inkscape:connector-curvature="0" />
<g
   id="g20">
</g>
<g
   id="g22">
</g>
<g
   id="g24">
</g>
<g
   id="g26">
</g>
<g
   id="g28">
</g>
<g
   id="g30">
</g>
<g
   id="g32">
</g>
<g
   id="g34">
</g>
<g
   id="g36">
</g>
<g
   id="g38">
</g>
<g
   id="g40">
</g>
<g
   id="g42">
</g>
<g
   id="g44">
</g>
<g
   id="g46">
</g>
<g
   id="g48">
</g>
</svg>